<svg xmlns="http://www.w3.org/2000/svg" width="224.75000000000003" height="35" viewBox="0 0 224.75000000000003 35"><rect class="svg__rect" x="0" y="0" width="132.21" height="35" fill="#C1D72F"/><rect class="svg__rect" x="130.21" y="0" width="94.54000000000002" height="35" fill="#5D9741"/><path class="svg__text" d="M16.67 22L14.22 22L14.22 13.47L16.74 13.47Q17.87 13.47 18.74 13.97Q19.62 14.48 20.10 15.40Q20.58 16.33 20.58 17.52L20.58 17.52L20.58 17.95Q20.58 19.16 20.10 20.08Q19.61 21.00 18.72 21.50Q17.83 22 16.67 22L16.67 22ZM15.70 14.66L15.70 20.82L16.67 20.82Q17.83 20.82 18.46 20.09Q19.08 19.36 19.09 17.99L19.09 17.99L19.09 17.52Q19.09 16.13 18.49 15.40Q17.89 14.66 16.74 14.66L16.74 14.66L15.70 14.66ZM24.78 18.00L24.78 18.00L24.78 17.52Q24.78 16.28 25.22 15.32Q25.66 14.37 26.47 13.86Q27.27 13.35 28.31 13.35Q29.36 13.35 30.16 13.85Q30.97 14.35 31.41 15.29Q31.85 16.23 31.85 17.48L31.85 17.48L31.85 17.96Q31.85 19.21 31.42 20.16Q30.99 21.10 30.18 21.61Q29.38 22.12 28.33 22.12L28.33 22.12Q27.29 22.12 26.48 21.61Q25.67 21.10 25.22 20.17Q24.78 19.23 24.78 18.00ZM26.26 17.46L26.26 17.96Q26.26 19.36 26.81 20.13Q27.35 20.90 28.33 20.90L28.33 20.90Q29.31 20.90 29.84 20.15Q30.37 19.40 30.37 17.96L30.37 17.96L30.37 17.51Q30.37 16.09 29.84 15.34Q29.30 14.58 28.31 14.58L28.31 14.58Q27.35 14.58 26.81 15.33Q26.27 16.09 26.26 17.46L26.26 17.46ZM36.05 18.19L36.05 18.19L36.05 17.39Q36.05 16.19 36.48 15.27Q36.90 14.35 37.70 13.85Q38.50 13.35 39.55 13.35L39.55 13.35Q40.97 13.35 41.83 14.12Q42.69 14.89 42.83 16.29L42.83 16.29L41.35 16.29Q41.25 15.37 40.82 14.96Q40.39 14.55 39.55 14.55L39.55 14.55Q38.59 14.55 38.07 15.26Q37.55 15.96 37.54 17.33L37.54 17.33L37.54 18.09Q37.54 19.47 38.03 20.20Q38.53 20.92 39.48 20.92L39.48 20.92Q40.36 20.92 40.80 20.53Q41.23 20.14 41.35 19.22L41.35 19.22L42.83 19.22Q42.70 20.59 41.82 21.35Q40.94 22.12 39.48 22.12L39.48 22.12Q38.46 22.12 37.69 21.63Q36.91 21.15 36.49 20.26Q36.07 19.37 36.05 18.19ZM47.01 19.16L47.01 19.16L47.01 13.47L48.48 13.47L48.48 19.18Q48.48 20.03 48.92 20.48Q49.35 20.93 50.19 20.93L50.19 20.93Q51.90 20.93 51.90 19.13L51.90 19.13L51.90 13.47L53.38 13.47L53.38 19.17Q53.38 20.53 52.51 21.32Q51.64 22.12 50.19 22.12L50.19 22.12Q48.73 22.12 47.87 21.33Q47.01 20.55 47.01 19.16ZM59.43 22L57.95 22L57.95 13.47L59.87 13.47L62.33 20.01L64.79 13.47L66.71 13.47L66.71 22L65.23 22L65.23 19.19L65.38 15.43L62.86 22L61.80 22L59.28 15.43L59.43 19.19L59.43 22ZM77.02 22L71.45 22L71.45 13.47L76.98 13.47L76.98 14.66L72.93 14.66L72.93 17.02L76.43 17.02L76.43 18.19L72.93 18.19L72.93 20.82L77.02 20.82L77.02 22ZM82.70 22L81.22 22L81.22 13.47L82.70 13.47L86.52 19.54L86.52 13.47L87.99 13.47L87.99 22L86.50 22L82.70 15.95L82.70 22ZM94.41 14.66L91.77 14.66L91.77 13.47L98.54 13.47L98.54 14.66L95.88 14.66L95.88 22L94.41 22L94.41 14.66ZM107.87 22L102.30 22L102.30 13.47L107.83 13.47L107.83 14.66L103.78 14.66L103.78 17.02L107.28 17.02L107.28 18.19L103.78 18.19L103.78 20.82L107.87 20.82L107.87 22ZM114.52 22L112.07 22L112.07 13.47L114.59 13.47Q115.72 13.47 116.60 13.97Q117.47 14.48 117.95 15.40Q118.43 16.33 118.43 17.52L118.43 17.52L118.43 17.95Q118.43 19.16 117.95 20.08Q117.47 21.00 116.57 21.50Q115.68 22 114.52 22L114.52 22ZM113.55 14.66L113.55 20.82L114.52 20.82Q115.68 20.82 116.31 20.09Q116.93 19.36 116.94 17.99L116.94 17.99L116.94 17.52Q116.94 16.13 116.34 15.40Q115.74 14.66 114.59 14.66L114.59 14.66L113.55 14.66Z" fill="#FFFFFF"/><path class="svg__text" d="M143.32 20.93L143.32 20.93L144.61 19.40Q145.28 20.27 146.06 20.27L146.06 20.27Q146.06 20.27 146.07 20.27L146.07 20.27Q146.58 20.27 146.85 19.96Q147.12 19.65 147.12 19.05L147.12 19.05L147.12 15.44L144.22 15.44L144.22 13.60L149.48 13.60L149.48 18.91Q149.48 20.54 148.65 21.36Q147.83 22.17 146.24 22.17L146.24 22.17Q145.31 22.17 144.56 21.85Q143.80 21.53 143.32 20.93ZM153.98 21.24L153.98 21.24L154.76 19.49Q155.32 19.86 156.06 20.09Q156.81 20.32 157.53 20.32L157.53 20.32Q158.89 20.32 158.90 19.64L158.90 19.64Q158.90 19.28 158.51 19.11Q158.12 18.93 157.25 18.74L157.25 18.74Q156.30 18.53 155.67 18.30Q155.03 18.06 154.58 17.55Q154.12 17.03 154.12 16.16L154.12 16.16Q154.12 15.39 154.54 14.77Q154.96 14.15 155.80 13.79Q156.63 13.43 157.84 13.43L157.84 13.43Q158.67 13.43 159.47 13.62Q160.28 13.80 160.89 14.17L160.89 14.17L160.16 15.93Q158.96 15.28 157.83 15.28L157.83 15.28Q157.12 15.28 156.80 15.49Q156.47 15.70 156.47 16.04L156.47 16.04Q156.47 16.37 156.86 16.54Q157.24 16.71 158.09 16.89L158.09 16.89Q159.05 17.10 159.68 17.33Q160.31 17.56 160.77 18.07Q161.24 18.58 161.24 19.46L161.24 19.46Q161.24 20.21 160.82 20.83Q160.40 21.44 159.56 21.80Q158.72 22.17 157.52 22.17L157.52 22.17Q156.50 22.17 155.54 21.92Q154.58 21.67 153.98 21.24ZM169.79 22L165.81 22L165.81 13.60L169.79 13.60Q171.17 13.60 172.24 14.12Q173.30 14.63 173.89 15.58Q174.48 16.53 174.48 17.80L174.48 17.80Q174.48 19.07 173.89 20.02Q173.30 20.97 172.24 21.48Q171.17 22 169.79 22L169.79 22ZM168.19 15.50L168.19 20.10L169.69 20.10Q170.77 20.10 171.42 19.49Q172.08 18.88 172.08 17.80L172.08 17.80Q172.08 16.72 171.42 16.11Q170.77 15.50 169.69 15.50L169.69 15.50L168.19 15.50ZM178.78 17.80L178.78 17.80Q178.78 16.55 179.38 15.55Q179.99 14.56 181.05 14.00Q182.11 13.43 183.44 13.43L183.44 13.43Q184.77 13.43 185.84 14.00Q186.90 14.56 187.51 15.55Q188.11 16.55 188.11 17.80L188.11 17.80Q188.11 19.05 187.51 20.04Q186.90 21.04 185.84 21.60Q184.78 22.17 183.44 22.17L183.44 22.17Q182.11 22.17 181.05 21.60Q179.99 21.04 179.38 20.04Q178.78 19.05 178.78 17.80ZM181.18 17.80L181.18 17.80Q181.18 18.51 181.48 19.05Q181.78 19.60 182.30 19.90Q182.81 20.20 183.44 20.20L183.44 20.20Q184.08 20.20 184.60 19.90Q185.11 19.60 185.41 19.05Q185.71 18.51 185.71 17.80L185.71 17.80Q185.71 17.09 185.41 16.54Q185.11 16 184.60 15.70Q184.08 15.40 183.44 15.40L183.44 15.40Q182.81 15.40 182.29 15.70Q181.78 16 181.48 16.54Q181.18 17.09 181.18 17.80ZM192.42 17.80L192.42 17.80Q192.42 16.54 193.01 15.54Q193.61 14.55 194.66 13.99Q195.71 13.43 197.03 13.43L197.03 13.43Q198.19 13.43 199.11 13.84Q200.03 14.25 200.65 15.02L200.65 15.02L199.14 16.39Q198.32 15.40 197.16 15.40L197.16 15.40Q196.47 15.40 195.94 15.70Q195.40 16 195.11 16.54Q194.81 17.09 194.81 17.80L194.81 17.80Q194.81 18.51 195.11 19.05Q195.40 19.60 195.94 19.90Q196.47 20.20 197.16 20.20L197.16 20.20Q198.32 20.20 199.14 19.22L199.14 19.22L200.65 20.58Q200.04 21.35 199.11 21.76Q198.19 22.17 197.03 22.17L197.03 22.17Q195.71 22.17 194.66 21.61Q193.61 21.05 193.01 20.05Q192.42 19.06 192.42 17.80ZM204.60 21.24L204.60 21.24L205.38 19.49Q205.94 19.86 206.68 20.09Q207.43 20.32 208.15 20.32L208.15 20.32Q209.51 20.32 209.52 19.64L209.52 19.64Q209.52 19.28 209.13 19.11Q208.74 18.93 207.87 18.74L207.87 18.74Q206.92 18.53 206.29 18.30Q205.65 18.06 205.20 17.55Q204.74 17.03 204.74 16.16L204.74 16.16Q204.74 15.39 205.16 14.77Q205.58 14.15 206.42 13.79Q207.25 13.43 208.46 13.43L208.46 13.43Q209.28 13.43 210.09 13.62Q210.90 13.80 211.51 14.17L211.51 14.17L210.78 15.93Q209.58 15.28 208.45 15.28L208.45 15.28Q207.74 15.28 207.42 15.49Q207.09 15.70 207.09 16.04L207.09 16.04Q207.09 16.37 207.48 16.54Q207.86 16.71 208.71 16.89L208.71 16.89Q209.67 17.10 210.30 17.33Q210.93 17.56 211.39 18.07Q211.86 18.58 211.86 19.46L211.86 19.46Q211.86 20.21 211.44 20.83Q211.02 21.44 210.18 21.80Q209.34 22.17 208.14 22.17L208.14 22.17Q207.12 22.17 206.16 21.92Q205.19 21.67 204.60 21.24Z" fill="#FFFFFF" x="143.21"/></svg>